<?xml version="1.0" standalone="no"?>
<!DOCTYPE svg PUBLIC "-//W3C//DTD SVG 20010904//EN"
 "http://www.w3.org/TR/2001/REC-SVG-20010904/DTD/svg10.dtd">
<svg version="1.0" xmlns="http://www.w3.org/2000/svg"
 width="1010.000000pt" height="1010.000000pt" viewBox="0 0 1010.000000 1010.000000"
 preserveAspectRatio="xMidYMid meet">
<metadata>
Created by potrace 1.11, written by Peter Selinger 2001-2013
</metadata>
<g transform="translate(0.000000,1010.000000) scale(0.100000,-0.100000)"
fill="#000000" stroke="none">
<path d="M566 8614 c-9 -8 -16 -19 -16 -24 0 -4 35 -38 78 -73 43 -36 101 -91
129 -124 29 -32 66 -74 83 -93 74 -84 92 -110 76 -110 -9 0 -33 9 -53 20 -78
41 -133 16 -133 -60 0 -37 19 -74 69 -130 56 -63 -4 -48 -87 22 -63 54 -110
71 -175 64 -57 -6 -62 -4 -146 43 -84 47 -179 86 -188 77 -4 -4 9 -13 61 -41
34 -18 28 -30 -26 -56 -57 -26 -76 -56 -64 -102 5 -23 192 -265 294 -382 86
-99 224 -234 302 -297 47 -38 102 -82 123 -99 47 -38 66 -74 61 -119 -1 -19
-1 -43 2 -52 8 -28 175 -164 364 -299 134 -95 513 -360 800 -559 107 -74 359
-258 489 -358 195 -149 248 -188 356 -261 44 -30 137 -100 206 -155 69 -56
139 -111 155 -123 36 -28 57 -44 164 -129 46 -37 109 -82 140 -100 30 -18 65
-43 76 -56 26 -28 40 -68 25 -68 -6 0 -28 -26 -48 -57 -43 -69 -194 -268 -312
-413 -83 -102 -313 -381 -353 -428 -18 -22 -54 -71 -262 -357 -121 -168 -159
-209 -446 -495 -147 -146 -289 -290 -317 -320 -190 -211 -438 -517 -627 -775
-65 -88 -126 -171 -137 -185 -75 -101 -276 -411 -314 -485 l-47 -90 49 51 c26
28 82 98 123 155 157 217 317 411 685 828 88 100 131 141 142 134 7 -5 -33
-64 -118 -173 -71 -91 -157 -205 -191 -255 -34 -49 -85 -117 -113 -150 -28
-33 -72 -89 -97 -125 -53 -75 -132 -214 -117 -205 5 4 41 48 79 98 74 98 99
128 144 167 l28 25 -7 -25 c-4 -14 -34 -60 -66 -103 -33 -43 -59 -82 -59 -87
0 -5 -28 -46 -62 -91 -126 -167 -198 -311 -233 -468 -10 -40 -15 -74 -13 -76
2 -2 51 60 108 138 58 78 182 246 277 372 95 127 194 259 220 294 48 65 155
181 167 181 18 0 -2 -38 -70 -131 -108 -147 -145 -226 -158 -333 -6 -46 -12
-52 104 94 139 174 159 192 223 211 28 8 26 5 -25 -49 -57 -59 -95 -114 -134
-192 -23 -47 -114 -312 -114 -333 0 -7 -25 -51 -56 -97 -50 -75 -94 -159 -94
-178 0 -17 74 76 112 141 64 109 143 211 242 312 73 75 151 164 297 340 9 11
44 52 76 90 33 39 120 151 195 250 75 99 168 214 208 255 243 253 356 374 363
386 11 19 23 18 31 -2 3 -9 -3 -27 -15 -42 -31 -40 -76 -152 -61 -152 8 0 61
77 86 125 19 36 39 68 46 75 3 3 27 39 54 80 49 74 143 202 186 250 12 14 33
39 47 55 47 53 216 238 278 303 63 66 135 165 135 186 0 7 24 20 54 29 68 22
161 83 203 134 17 21 59 72 93 113 34 41 74 89 90 107 40 45 199 249 255 328
74 103 75 102 318 -85 447 -344 800 -592 1542 -1085 642 -426 848 -554 1102
-683 171 -87 223 -91 282 -21 13 16 30 29 38 29 7 0 64 -29 126 -64 61 -35
128 -72 147 -83 19 -11 87 -49 150 -85 122 -69 192 -107 385 -208 271 -142
335 -176 440 -233 104 -57 287 -168 457 -277 127 -82 371 -210 399 -210 32 0
59 28 59 63 0 35 -40 66 -208 162 -75 44 -191 111 -257 150 -66 39 -131 76
-145 83 -63 33 -89 71 -94 136 -2 28 -11 54 -22 67 -10 12 -254 138 -542 281
-482 241 -631 324 -632 355 0 14 60 -6 185 -59 386 -167 547 -234 720 -300 94
-36 217 -81 275 -101 163 -56 287 -71 138 -17 -91 32 -346 140 -463 195 -389
184 -485 234 -485 256 0 14 32 10 65 -7 62 -33 362 -183 409 -204 68 -30 215
-86 249 -94 21 -5 33 -1 52 18 43 43 24 77 -108 191 l-38 33 31 7 c29 6 30 8
13 20 -10 7 -46 27 -78 44 -103 52 -128 74 -131 111 -2 18 -11 49 -21 67 -37
70 -319 262 -628 428 -91 49 -239 139 -289 176 -51 37 -30 38 83 4 89 -26 190
-43 241 -39 61 5 107 57 94 107 -31 124 -523 498 -1144 869 -124 74 -245 146
-270 160 -57 32 -277 158 -545 313 -115 67 -230 133 -255 147 -25 14 -100 57
-167 97 -68 39 -125 71 -128 71 -3 0 -22 11 -43 23 -20 13 -86 50 -147 82
-131 69 -200 113 -239 153 l-28 30 43 49 c24 26 46 50 49 53 3 3 34 39 70 80
89 103 356 370 466 466 50 43 119 104 155 135 35 31 82 71 104 90 21 19 66 59
100 90 33 31 72 67 86 80 51 46 193 174 203 184 6 6 49 44 96 85 47 41 102 91
123 110 22 19 51 46 66 58 224 200 456 423 516 497 58 73 70 140 32 196 -51
76 -148 47 -297 -87 -19 -18 -64 -56 -100 -85 -69 -57 -59 -41 50 75 36 38 76
81 90 96 14 15 57 60 96 101 39 41 94 101 124 134 29 33 70 79 91 103 135 151
229 303 229 371 0 42 -28 93 -66 117 -42 28 -91 22 -163 -20 -35 -20 -65 -36
-66 -34 -1 2 -14 26 -28 54 -32 63 -47 75 -100 81 -71 8 -173 -55 -367 -228
-58 -51 -112 -99 -120 -107 -26 -26 -22 5 6 50 47 73 38 154 -22 193 -58 38
-150 -8 -334 -169 -128 -111 -417 -398 -525 -520 -39 -43 -75 -84 -80 -90 -6
-6 -35 -40 -65 -76 -30 -36 -58 -67 -61 -70 -5 -4 -264 -315 -354 -425 -18
-22 -67 -81 -108 -131 -41 -50 -151 -186 -244 -301 -211 -264 -201 -252 -365
-462 -75 -97 -151 -191 -168 -208 -50 -53 -88 -43 -190 52 -25 23 -83 69 -130
102 -191 135 -642 443 -650 443 -5 0 -10 3 -12 8 -1 4 -120 85 -263 181 -238
160 -379 258 -710 492 -409 290 -457 324 -730 510 -191 130 -762 530 -925 648
-117 85 -284 181 -315 181 -7 0 -21 -7 -29 -16z m498 -426 c11 -10 23 -18 28
-18 9 0 49 -34 102 -85 27 -26 29 -30 13 -33 -10 -2 -28 -1 -40 2 -23 6 -123
84 -121 95 2 9 -22 42 -27 36 -3 -2 -5 4 -6 15 -2 22 20 17 51 -12z m476 -483
c7 -8 16 -12 21 -9 5 3 9 1 9 -4 0 -5 26 -22 58 -38 31 -15 59 -32 60 -36 2
-4 10 -8 18 -8 8 0 14 -4 14 -10 0 -5 7 -10 15 -10 8 0 15 -4 15 -10 0 -5 5
-10 11 -10 6 0 30 -13 54 -30 24 -16 48 -30 54 -30 6 0 11 -4 11 -9 0 -5 9
-13 21 -16 12 -4 30 -16 40 -26 11 -11 24 -17 29 -14 6 4 10 2 10 -4 0 -5 37
-35 83 -66 188 -129 231 -165 198 -165 -10 0 -169 68 -222 95 -16 9 -32 15
-35 14 -4 0 -10 3 -13 8 -3 5 -31 23 -61 39 -30 16 -56 32 -58 37 -2 4 -12 7
-23 7 -10 0 -19 4 -19 8 0 10 -77 62 -91 62 -5 0 -9 4 -9 8 0 4 -19 22 -42 40
-53 40 -188 172 -188 184 0 13 27 9 40 -7z m1375 -1114 c33 -20 63 -34 68 -33
4 1 7 -2 7 -8 0 -5 14 -17 32 -26 17 -9 40 -24 51 -35 11 -10 25 -15 31 -12 6
3 8 2 3 -2 -7 -8 49 -48 86 -61 9 -4 17 -10 17 -15 0 -5 6 -9 14 -9 7 0 19 -7
26 -15 7 -8 16 -12 21 -9 5 3 9 0 9 -6 0 -6 5 -8 10 -5 6 3 10 2 10 -4 0 -6
15 -18 33 -27 17 -9 34 -20 37 -25 3 -4 12 -9 20 -11 8 -2 22 -10 32 -19 10
-9 31 -22 46 -30 15 -8 33 -20 40 -26 7 -7 20 -13 28 -13 8 0 14 -4 14 -8 0
-10 50 -37 63 -34 4 1 7 -2 7 -7 0 -8 39 -35 100 -69 14 -7 40 -25 59 -39 19
-15 31 -20 27 -12 -6 10 -4 10 6 -1 7 -9 49 -37 93 -64 44 -27 88 -56 98 -64
9 -8 17 -11 17 -6 0 5 4 4 8 -2 9 -13 149 -104 160 -104 18 0 107 -91 94 -97
-6 -2 -10 -8 -7 -12 2 -4 -14 -8 -35 -7 -22 0 -40 4 -40 9 0 4 -4 6 -9 3 -5
-4 -11 -2 -13 2 -3 8 -20 19 -145 88 -27 15 -54 31 -60 37 -7 5 -13 6 -13 2 0
-5 -8 -1 -17 8 -10 8 -25 17 -33 19 -14 3 -27 11 -53 33 -39 34 -87 66 -87 59
0 -4 -6 -1 -12 8 -7 9 -40 31 -73 48 -33 18 -66 37 -74 44 -12 9 -13 8 -7 -4
7 -13 6 -13 -6 0 -7 8 -35 26 -63 40 -27 14 -54 28 -60 33 -72 55 -104 75
-110 69 -5 -4 -5 -2 -2 4 7 11 -19 29 -36 25 -5 -1 -6 3 -3 8 6 10 -22 26 -39
22 -5 -2 -7 1 -3 4 4 4 -27 32 -70 63 -42 30 -78 59 -80 63 -2 5 -8 9 -13 9
-8 0 -17 6 -71 53 -12 9 -25 17 -29 17 -4 0 -14 6 -21 13 -7 7 -29 24 -48 37
-19 13 -37 27 -40 30 -3 4 -26 20 -51 38 -41 28 -65 62 -52 75 8 9 48 -7 108
-42z m2274 -1421 c51 -20 151 -103 139 -116 -11 -11 -131 51 -172 89 -56 52
-48 59 33 27z m2261 -1319 c25 -12 59 -30 75 -40 17 -10 33 -16 38 -14 4 2 7
0 7 -4 0 -5 19 -18 43 -28 23 -10 59 -29 80 -42 20 -13 37 -20 37 -17 0 4 8 0
18 -8 9 -8 25 -18 35 -21 10 -4 16 -11 12 -16 -3 -6 -11 -8 -18 -5 -7 2 -33 6
-58 9 -24 2 -46 5 -49 6 -3 1 -9 3 -15 4 -62 12 -204 75 -225 101 -7 8 -19 14
-27 14 -8 0 -12 4 -9 9 3 5 -1 11 -9 15 -9 3 -15 19 -15 40 0 39 -4 39 80 -3z"/>
<path d="M7607 6273 c-4 -3 -7 -11 -7 -17 0 -6 5 -4 11 4 9 13 10 13 6 0 -2
-9 -15 -15 -30 -14 -18 1 -24 -3 -20 -14 5 -11 1 -13 -14 -8 -14 4 -23 1 -26
-9 -4 -9 -13 -12 -24 -8 -12 4 -10 0 6 -14 18 -15 20 -20 8 -20 -9 0 -14 5
-11 11 3 6 -1 3 -9 -6 -13 -16 -15 -16 -32 0 -16 16 -16 15 1 -13 17 -27 17
-29 1 -16 -14 11 -17 11 -17 0 0 -8 -12 -23 -27 -33 -14 -11 -23 -15 -20 -9 4
6 0 13 -8 17 -8 3 -17 0 -21 -6 -4 -6 -3 -8 4 -4 6 4 10 -1 9 -13 -1 -15 -4
-17 -14 -9 -10 8 -13 6 -13 -8 0 -16 -2 -17 -10 -4 -8 13 -10 12 -10 -2 0 -10
-5 -18 -11 -18 -7 0 -18 8 -26 18 -13 15 -13 15 -3 -6 13 -27 5 -43 -17 -35
-12 5 -14 3 -8 -8 7 -12 6 -12 -7 -1 -19 15 -34 0 -22 -20 6 -10 5 -10 -7 -1
-11 9 -18 8 -32 -1 -9 -7 -17 -17 -17 -21 0 -5 9 0 20 10 11 10 20 13 20 8 0
-12 -30 -28 -61 -32 -5 0 -7 -7 -3 -13 5 -8 0 -7 -11 2 -17 14 -18 13 -12 -4
7 -17 6 -17 -10 -5 -15 12 -16 12 -10 -3 7 -20 -9 -25 -16 -5 -4 9 -6 9 -6 -1
-1 -7 -5 -10 -11 -7 -5 3 -7 0 -4 -8 4 -12 -23 -46 -32 -40 -10 7 -33 -11 -27
-21 4 -6 1 -6 -9 2 -13 10 -17 10 -22 -4 -4 -11 -14 -15 -31 -12 -21 4 -23 3
-14 -9 10 -11 8 -12 -7 -6 -17 6 -17 5 -5 -10 12 -15 12 -17 -3 -11 -10 4 -16
1 -16 -7 -1 -9 -6 -7 -16 6 -16 19 -16 19 -9 -5 7 -23 7 -24 -10 -10 -17 14
-18 13 -12 -3 4 -10 3 -16 -2 -12 -5 3 -12 1 -16 -5 -3 -5 -1 -10 6 -10 7 0 9
-3 6 -7 -4 -3 -15 1 -25 10 -15 14 -19 15 -19 2 0 -8 5 -11 11 -8 6 4 5 -1 -3
-10 -12 -16 -37 -14 -27 2 3 3 -4 7 -14 7 -19 0 -18 -1 0 -19 24 -22 25 -28 3
-20 -12 5 -14 3 -8 -8 4 -8 5 -11 0 -7 -4 4 -14 0 -21 -10 -12 -15 -15 -15
-23 -2 -8 11 -9 4 -7 -25 l4 -40 -19 24 c-21 26 -25 21 -8 -12 11 -21 10 -21
-15 2 -29 27 -35 22 -9 -8 18 -22 27 -55 12 -45 -5 3 -6 10 -3 16 5 7 2 8 -5
4 -7 -5 -10 -14 -7 -21 2 -7 0 -17 -6 -23 -6 -6 -6 -12 1 -16 6 -4 11 -12 11
-19 0 -6 -6 -2 -14 8 -13 18 -14 18 -23 -1 -6 -10 -8 -24 -6 -31 3 -7 -4 -10
-19 -6 -23 5 -23 5 -3 -11 11 -10 14 -15 8 -11 -9 4 -11 1 -6 -11 4 -10 2 -15
-4 -11 -5 3 -10 0 -10 -8 0 -8 5 -11 10 -8 5 3 7 0 5 -8 -3 -8 -11 -13 -17
-11 -7 1 -10 -2 -6 -8 3 -6 10 -8 15 -5 17 11 33 -35 17 -46 -5 -4 -4 -10 2
-13 6 -4 11 -2 11 4 0 6 5 8 13 4 8 -5 8 -2 -2 9 -7 9 -12 17 -10 18 37 7 40
7 30 -5 -6 -7 -9 -15 -6 -18 3 -3 -1 -11 -10 -18 -14 -11 -13 -14 2 -25 20
-15 30 -60 11 -49 -10 6 -10 4 0 -8 9 -11 10 -18 2 -23 -5 -3 -10 -1 -10 6 0
7 -3 10 -6 7 -3 -4 2 -17 11 -31 11 -17 13 -27 5 -32 -6 -3 -8 -11 -5 -16 4
-5 1 -9 -4 -9 -13 0 -14 13 -2 26 6 5 4 13 -3 20 -10 10 -13 5 -14 -19 -1 -42
5 -49 31 -35 20 10 21 10 8 -6 -12 -14 -12 -16 3 -10 9 4 16 3 15 -2 -3 -20 2
-34 12 -34 8 0 8 4 0 14 -7 9 -8 17 -2 20 5 3 11 2 13 -4 2 -6 14 -12 27 -15
13 -2 20 -1 17 3 -4 4 -12 7 -17 7 -5 0 -9 4 -9 9 0 5 17 10 37 11 61 3 64 4
58 18 -4 6 0 4 8 -5 17 -22 28 -23 21 -4 -3 8 0 17 7 22 8 5 10 3 4 -6 -6 -10
-3 -11 16 -6 13 4 32 8 42 7 10 0 15 5 11 11 -4 7 -2 8 5 4 6 -4 9 -12 6 -17
-3 -5 2 -6 11 -2 13 5 15 3 8 -8 -13 -21 -14 -39 -2 -39 6 0 8 7 5 15 -4 8 -2
17 4 21 7 4 7 10 0 18 -9 11 -2 12 53 7 4 -1 5 -9 2 -18 -4 -12 1 -9 15 7 11
14 18 20 15 13 -5 -8 1 -10 21 -4 35 10 53 4 77 -23 18 -21 18 -21 2 6 -11 19
-13 29 -4 34 7 4 8 3 4 -4 -4 -7 -3 -12 3 -12 5 0 13 5 16 10 11 17 24 11 20
-10 -2 -11 1 -20 7 -20 5 0 8 6 5 13 -3 7 1 21 9 32 8 10 14 14 14 7 0 -6 11
-11 25 -10 14 1 25 7 25 13 0 5 4 3 9 -5 6 -8 8 -17 5 -21 -2 -4 1 -11 8 -15
7 -4 10 -4 6 1 -4 4 -2 15 5 23 9 13 9 14 0 8 -9 -5 -11 -2 -7 8 4 9 14 13 31
10 15 -3 30 1 35 8 6 9 8 8 6 -6 -2 -10 3 -21 10 -23 7 -3 10 1 6 10 -4 12 0
14 15 10 12 -3 29 1 38 8 9 8 14 9 10 3 -4 -7 0 -15 9 -18 8 -3 12 -2 9 3 -3
5 0 13 6 17 8 4 9 3 5 -4 -10 -16 6 -15 24 1 8 6 7 3 -3 -9 -9 -11 -17 -25
-17 -30 0 -5 4 -4 8 1 11 16 47 41 39 28 -5 -7 1 -16 13 -23 16 -9 20 -8 20 7
0 15 2 15 14 -3 14 -18 15 -18 21 -1 4 9 11 17 17 17 5 0 7 -4 4 -8 -3 -5 1
-9 8 -9 8 0 12 8 9 21 -4 17 -3 18 6 6 8 -11 11 -12 11 -2 0 7 5 10 10 7 6 -3
10 2 11 12 0 10 3 13 6 6 3 -10 8 -10 19 1 8 8 14 19 14 25 0 6 8 7 17 4 13
-5 15 -2 10 11 -4 9 -3 15 2 11 5 -3 16 1 24 9 8 8 17 12 21 9 3 -4 6 1 6 10
0 15 11 22 33 18 4 0 7 6 7 15 0 10 6 14 14 11 11 -4 13 -1 9 10 -4 11 -2 14
5 9 11 -7 17 6 13 27 -1 5 2 6 7 3 5 -3 15 4 22 14 11 16 17 17 29 7 14 -11
14 -10 1 7 -11 15 -12 20 -2 23 6 3 12 14 12 25 0 15 5 18 16 14 14 -5 15 -4
4 9 -10 12 -9 15 6 16 11 0 14 3 7 5 -8 4 -5 16 10 41 12 20 16 34 10 30 -8
-5 -11 0 -10 12 0 11 5 17 11 14 5 -3 7 5 4 21 -4 18 0 30 11 36 9 5 11 10 5
10 -6 0 -10 10 -8 23 1 12 3 26 3 30 1 5 7 5 14 2 6 -4 3 1 -7 9 -17 14 -16
20 4 18 8 -1 5 42 -4 56 -4 7 -2 12 4 12 6 0 8 5 5 10 -4 6 -12 7 -18 3 -7 -4
-6 0 2 10 10 13 10 17 1 17 -9 0 -10 3 -2 13 9 10 7 19 -4 35 -8 12 -13 26 -9
31 3 5 0 13 -6 17 -8 5 -9 3 -4 -6 5 -8 4 -11 -3 -6 -6 4 -9 13 -5 21 3 8 0
15 -6 15 -6 0 -11 9 -11 19 0 10 -7 22 -16 25 -10 4 -14 12 -10 22 5 14 4 15
-9 4 -13 -10 -15 -9 -15 9 0 11 -3 20 -7 20 -18 -3 -36 1 -30 7 7 8 -12 28
-35 37 -10 3 -18 11 -18 17 0 6 -4 8 -10 5 -5 -3 -10 -1 -10 5 0 6 -4 8 -10 5
-5 -3 -10 -1 -10 5 0 7 -6 10 -13 7 -13 -5 -39 17 -31 26 3 3 -1 5 -8 4 -34
-1 -59 4 -54 11 5 9 -41 8 -51 -1 -3 -4 -14 0 -23 8 -9 8 -20 12 -23 8z m-65
-75 c-7 -7 -12 -8 -12 -2 0 14 12 26 19 19 2 -3 -1 -11 -7 -17z m-887 -738
c-3 -5 -11 -10 -16 -10 -6 0 -7 5 -4 10 3 6 11 10 16 10 6 0 7 -4 4 -10z m13
-22 c-2 -7 4 -12 12 -10 11 1 9 -2 -4 -13 -15 -11 -23 -12 -33 -4 -11 10 -10
14 4 25 22 17 24 17 21 2z m42 -100 c0 -4 -5 -8 -11 -8 -5 0 -7 -5 -4 -10 4
-7 13 -6 26 1 18 9 19 8 10 -9 -7 -13 -7 -23 2 -32 9 -10 9 -11 0 -6 -12 6
-40 -31 -35 -47 1 -5 -2 -6 -8 -2 -8 5 -8 11 -1 19 6 7 8 16 4 19 -3 4 -1 7 7
7 9 0 10 3 1 13 -6 8 -9 16 -6 19 3 3 -1 11 -10 18 -21 17 -19 29 5 27 11 -1
20 -5 20 -9z"/>
<path d="M6705 5301 c-3 -5 -2 -12 3 -15 5 -3 9 1 9 9 0 17 -3 19 -12 6z"/>
<path d="M7419 6133 c-13 -16 -12 -17 4 -4 9 7 17 15 17 17 0 8 -8 3 -21 -13z"/>
<path d="M7057 5915 c3 -8 9 -12 14 -9 12 7 11 11 -5 17 -10 4 -13 1 -9 -8z"/>
<path d="M7010 5898 c0 -11 12 -10 30 2 12 7 10 9 -8 7 -12 0 -22 -5 -22 -9z"/>
<path d="M1997 5615 c-9 -6 -13 -16 -9 -21 4 -4 -1 -2 -10 5 -19 14 -20 13
-22 -18 0 -11 -5 -23 -9 -28 -5 -4 -7 -2 -5 6 2 7 -4 16 -12 18 -13 4 -13 3 0
-6 8 -6 11 -11 6 -11 -5 0 -3 -6 3 -14 10 -11 8 -16 -9 -21 -12 -4 -17 -11
-13 -18 4 -7 -2 -5 -12 3 -17 14 -18 14 -7 -7 14 -26 15 -36 3 -29 -5 3 -14
-1 -21 -9 -10 -12 -16 -13 -27 -4 -11 10 -12 8 -7 -6 5 -12 4 -16 -4 -11 -6 3
-14 2 -17 -4 -4 -7 -67 -10 -177 -9 -126 1 -172 -2 -178 -11 -6 -9 -9 -9 -12
1 -4 12 -7 12 -21 1 -9 -8 -21 -11 -27 -7 -5 3 -10 1 -10 -5 0 -6 -5 -8 -10
-5 -10 6 -75 -58 -75 -73 -1 -4 -6 -16 -12 -28 -9 -16 -9 -24 0 -34 10 -10 9
-11 -2 -5 -10 6 -13 4 -9 -7 4 -8 1 -15 -6 -15 -7 0 -13 6 -13 14 0 7 3 13 7
13 4 0 7 7 7 15 0 8 -4 12 -8 9 -4 -2 -10 4 -12 13 -3 10 -4 2 -2 -17 2 -27
-2 -38 -19 -48 -21 -13 -21 -13 2 -7 12 4 22 3 21 -2 -4 -25 2 -73 9 -69 5 3
9 -1 9 -9 0 -8 -4 -12 -9 -9 -4 3 -8 1 -8 -5 0 -5 5 -11 12 -13 7 -3 5 -7 -6
-11 -11 -5 -15 -3 -10 5 5 7 3 8 -5 3 -10 -6 -11 -3 -2 13 8 16 7 23 -7 33
-16 13 -16 13 -2 -5 14 -18 13 -19 -4 -13 -16 6 -17 5 -6 -8 7 -8 9 -15 4 -15
-4 0 -3 -5 4 -12 17 -17 15 -33 -3 -18 -10 9 -15 9 -15 1 0 -6 4 -11 9 -11 14
0 7 -40 -9 -50 -12 -7 -10 -9 7 -7 12 0 19 5 16 11 -3 5 -1 6 5 2 17 -11 15
-15 -14 -26 -20 -8 -24 -15 -19 -33 l6 -22 -18 23 -19 23 1 -26 c1 -13 5 -28
10 -32 4 -5 5 -2 0 6 -5 9 -3 12 6 9 8 -3 15 -10 15 -16 1 -7 2 -19 3 -28 0
-8 5 -13 10 -10 8 5 8 -15 1 -34 -1 -3 -2 -9 -1 -13 1 -5 -3 -6 -9 -2 -5 3
-10 1 -10 -6 0 -8 -5 -7 -17 2 -16 13 -16 13 0 -10 11 -17 13 -29 6 -42 -7
-14 -6 -17 5 -13 8 3 13 13 11 22 -3 22 4 34 16 26 6 -4 6 -11 -2 -20 -9 -11
-8 -14 2 -14 8 0 6 -5 -5 -13 -15 -11 -17 -18 -8 -33 6 -10 13 -18 16 -16 15
6 23 1 23 -14 0 -14 -2 -14 -14 2 -7 10 -13 14 -13 9 0 -4 -10 0 -22 11 -16
13 -19 14 -10 2 10 -13 10 -17 0 -22 -9 -4 -9 -5 2 -5 33 2 41 -2 38 -19 -2
-11 4 -27 12 -37 14 -17 13 -17 -10 -11 l-25 7 24 -14 c13 -8 20 -16 15 -19
-5 -3 -3 -3 4 -2 7 2 15 -3 18 -11 4 -8 10 -15 16 -15 5 0 6 6 1 13 -4 6 -6
20 -4 31 1 11 -2 16 -8 11 -6 -3 -8 -11 -5 -17 5 -7 2 -8 -5 -3 -9 5 -10 10
-2 18 8 8 5 14 -11 23 l-21 12 24 12 c22 12 23 12 10 -3 -12 -15 -11 -17 3
-17 8 0 18 -11 22 -25 3 -14 10 -23 14 -20 10 6 7 -15 -4 -34 -7 -11 -5 -13 8
-8 11 5 15 3 10 -5 -5 -7 -2 -9 9 -5 11 4 14 2 10 -9 -4 -11 -8 -12 -20 -3
-11 9 -17 9 -26 0 -9 -10 -8 -11 8 -5 18 7 19 6 5 -12 -14 -17 -14 -18 2 -6
11 9 18 10 23 2 3 -5 1 -10 -4 -10 -6 0 -11 -5 -11 -11 0 -8 5 -7 15 1 12 10
19 10 27 2 9 -9 8 -12 -5 -12 -9 0 -17 -4 -17 -10 0 -5 8 -6 18 -3 15 6 16 5
2 -13 -11 -14 -11 -16 0 -7 11 10 17 10 31 -3 10 -9 16 -21 15 -27 -2 -7 -1
-9 1 -4 7 11 23 8 20 -4 -1 -6 5 -14 13 -16 12 -4 12 -3 1 5 -8 6 -9 12 -3 16
6 3 13 2 17 -4 9 -14 42 -13 48 3 6 16 26 -3 32 -31 3 -16 0 -19 -13 -15 -9 4
-11 8 -5 10 7 3 9 11 6 19 -3 7 -9 11 -14 8 -5 -3 -7 -10 -4 -15 3 -5 -2 -6
-12 -3 -10 3 -6 -3 10 -13 15 -11 24 -23 20 -28 -5 -4 2 -2 14 5 12 8 19 20
16 29 -2 9 4 4 13 -11 20 -30 34 -34 51 -17 9 9 11 8 9 -4 -1 -9 -6 -20 -11
-24 -4 -4 -5 -2 0 6 5 9 4 12 -3 7 -17 -10 -3 -33 23 -39 14 -2 22 0 19 4 -3
5 2 9 11 9 10 0 13 5 9 13 -5 8 -2 8 9 -2 12 -9 17 -10 17 -2 0 7 5 9 11 5 7
-4 7 -9 1 -13 -5 -3 -13 -17 -17 -30 -6 -21 -5 -22 8 -10 8 8 13 17 10 21 -2
4 4 5 13 1 12 -4 15 -3 10 5 -6 9 -1 9 18 1 14 -7 23 -16 20 -20 -3 -5 4 -9
16 -9 12 0 19 -4 15 -9 -3 -5 -1 -12 4 -15 5 -4 12 -2 15 3 4 5 2 12 -3 16 -6
3 -8 12 -5 20 4 8 11 12 16 9 6 -4 5 -10 -3 -15 -10 -6 -7 -9 11 -9 14 0 42
-3 64 -6 30 -5 37 -4 31 6 -6 9 -4 11 6 4 19 -11 179 -13 202 -2 11 6 17 5 17
-2 0 -6 5 -8 10 -5 6 4 7 12 4 18 -5 9 -3 9 6 0 11 -10 11 -15 -1 -30 -13 -17
-13 -17 4 -4 11 9 16 22 13 33 -4 16 -2 17 10 7 11 -9 17 -9 28 0 11 10 17 8
26 -6 9 -15 10 -14 4 7 l-7 25 24 -20 c14 -12 18 -13 11 -4 -10 13 -10 19 2
28 10 9 16 9 21 1 5 -8 12 -4 22 9 8 12 19 19 24 16 5 -4 9 -1 9 5 0 6 4 9 9
6 4 -3 21 6 37 19 16 14 34 23 41 20 7 -2 15 1 19 7 5 7 2 8 -7 3 -8 -4 -5 1
6 12 14 15 24 18 33 10 9 -7 11 -6 6 6 -3 10 5 23 25 38 17 13 31 26 31 31 0
11 40 50 41 41 1 -5 4 3 8 17 4 14 13 24 19 23 6 -2 9 4 6 12 -4 8 -1 15 4 15
6 0 9 9 7 20 -2 11 3 26 11 34 10 10 11 17 3 22 -8 4 -7 9 2 15 10 6 11 9 2 9
-8 0 -13 15 -13 40 0 22 -5 40 -11 40 -5 0 -7 5 -3 11 3 6 0 15 -7 20 -12 7
-11 9 1 9 11 1 10 4 -5 16 -17 13 -18 16 -5 24 13 9 13 10 0 11 -8 1 -18 1
-22 0 -5 0 -7 2 -6 7 4 12 -24 72 -34 72 -5 0 -6 5 -2 12 4 6 3 8 -3 5 -11 -7
-44 28 -35 38 4 4 3 5 -3 4 -15 -5 -55 33 -48 45 4 6 -2 4 -12 -4 -10 -8 -16
-10 -12 -3 4 7 -1 14 -13 18 -11 3 -20 11 -20 16 0 6 -4 8 -9 5 -5 -3 -25 6
-46 19 -20 14 -33 20 -29 13 6 -9 3 -9 -9 1 -9 7 -17 10 -17 6 0 -4 -7 -2 -15
5 -8 6 -19 9 -25 5 -5 -3 -10 -1 -10 5 0 6 -4 9 -9 6 -12 -8 -42 4 -37 13 3 4
-4 7 -14 8 -11 1 -29 11 -42 22 -12 12 -25 21 -30 21 -4 0 -8 6 -8 13 0 7 -8
22 -18 33 -11 11 -18 27 -16 37 1 9 -3 17 -9 17 -7 0 -5 5 3 10 12 8 12 10 1
10 -8 0 -11 3 -8 7 4 3 1 13 -6 21 -10 13 -9 15 8 8 15 -5 17 -4 8 5 -7 7 -9
19 -3 34 5 14 4 27 -3 34 -8 8 -8 11 1 11 17 0 4 73 -14 83 -8 5 -11 14 -8 20
4 7 4 9 0 5 -5 -4 -18 -3 -30 2 -14 5 -28 3 -39 -5z m-707 -395 c0 -5 -2 -10
-4 -10 -3 0 -8 5 -11 10 -3 6 -1 10 4 10 6 0 11 -4 11 -10z m0 -120 c0 -5 -6
-10 -12 -10 -9 0 -8 -4 2 -10 11 -7 11 -10 2 -10 -8 0 -10 -5 -6 -12 6 -9 3
-9 -9 0 -13 11 -14 17 -4 33 13 20 27 25 27 9z m-36 -115 c-8 -12 -12 -24 -8
-27 3 -3 2 -8 -3 -11 -4 -3 -8 10 -9 28 -1 26 3 33 17 32 15 -1 15 -4 3 -22z
m-4 -205 c0 -5 -5 -10 -11 -10 -5 0 -7 5 -4 10 3 6 8 10 11 10 2 0 4 -4 4 -10z
m123 -207 c-5 -12 -3 -14 7 -8 8 5 11 4 6 -3 -4 -6 -13 -9 -22 -5 -11 4 -12 9
-3 19 15 19 20 18 12 -3z m32 -22 c-7 -12 29 -33 40 -23 5 4 5 1 1 -6 -4 -7
-12 -10 -17 -7 -5 3 -6 -1 -3 -10 5 -11 10 -13 19 -5 11 9 12 7 8 -10 -5 -17
-8 -18 -22 -8 -47 36 -50 40 -40 59 5 11 12 19 15 19 3 0 3 -4 -1 -9z m85 -84
c11 -5 9 -6 -4 -4 -11 1 -21 9 -23 17 -3 10 -2 11 4 4 4 -6 15 -14 23 -17z
m176 -84 c-2 -10 -11 -20 -20 -21 -15 -3 -16 -1 -4 17 16 26 27 27 24 4z"/>
<path d="M1390 4526 c0 -2 7 -9 15 -16 13 -11 14 -10 9 4 -5 14 -24 23 -24 12z"/>
<path d="M6665 5619 c-4 -6 -5 -12 -2 -15 2 -3 7 2 10 11 7 17 1 20 -8 4z"/>
<path d="M6641 5574 c7 -8 6 -14 -3 -17 -7 -2 -10 -7 -7 -11 3 -3 15 4 27 17
l22 23 -25 0 c-18 0 -21 -3 -14 -12z"/>
<path d="M1890 5540 c0 -5 5 -10 10 -10 6 0 10 5 10 10 0 6 -4 10 -10 10 -5 0
-10 -4 -10 -10z"/>
<path d="M1872 5505 c4 -4 3 -16 -3 -26 -5 -11 -7 -19 -5 -19 3 0 10 9 16 19
7 15 7 22 -2 27 -7 4 -10 4 -6 -1z"/>
<path d="M1779 5453 c-13 -16 -12 -17 4 -4 9 7 17 15 17 17 0 8 -8 3 -21 -13z"/>
<path d="M1307 5399 c7 -7 15 -10 18 -7 3 3 -2 9 -12 12 -14 6 -15 5 -6 -5z"/>
<path d="M6616 5383 c-6 -14 -5 -15 5 -6 7 7 10 15 7 18 -3 3 -9 -2 -12 -12z"/>
<path d="M1320 5370 c-8 -5 -12 -12 -9 -15 4 -3 12 1 19 10 14 17 11 19 -10 5z"/>
<path d="M1284 5331 c0 -11 5 -17 13 -14 10 4 11 9 2 19 -15 18 -15 18 -15 -5z"/>
<path d="M6655 5300 c3 -5 8 -10 11 -10 2 0 4 5 4 10 0 6 -5 10 -11 10 -5 0
-7 -4 -4 -10z"/>
<path d="M1235 5281 c-3 -5 -2 -12 3 -15 5 -3 9 1 9 9 0 17 -3 19 -12 6z"/>
<path d="M7460 5220 c0 -5 5 -10 11 -10 5 0 7 5 4 10 -3 6 -8 10 -11 10 -2 0
-4 -4 -4 -10z"/>
<path d="M1229 5202 c-13 -15 -12 -16 3 -4 13 10 17 10 21 0 4 -9 6 -9 6 -1 2
20 -16 24 -30 5z"/>
<path d="M7535 5210 c-3 -5 -5 -10 -3 -11 33 -8 38 -7 27 7 -14 17 -16 17 -24
4z"/>
<path d="M7246 5197 c3 -10 9 -15 12 -12 3 3 0 11 -7 18 -10 9 -11 8 -5 -6z"/>
<path d="M7276 5202 c-3 -5 1 -9 9 -9 8 0 12 4 9 9 -3 4 -7 8 -9 8 -2 0 -6 -4
-9 -8z"/>
<path d="M7350 5200 c0 -5 5 -10 11 -10 5 0 7 5 4 10 -3 6 -8 10 -11 10 -2 0
-4 -4 -4 -10z"/>
<path d="M7016 5174 c-8 -20 -8 -24 2 -24 4 0 8 9 9 20 2 24 -3 26 -11 4z"/>
<path d="M7495 5180 c3 -5 8 -10 11 -10 2 0 4 5 4 10 0 6 -5 10 -11 10 -5 0
-7 -4 -4 -10z"/>
<path d="M6920 5170 c-8 -5 -11 -12 -7 -17 5 -4 12 -1 16 6 7 11 10 11 14 0 3
-9 6 -10 6 -2 1 17 -13 23 -29 13z"/>
<path d="M7123 5173 c9 -2 14 -9 11 -15 -4 -7 -2 -8 5 -4 15 10 4 26 -17 25
-15 -1 -15 -2 1 -6z"/>
<path d="M7070 5162 c0 -4 9 -8 19 -8 11 0 17 4 15 8 -3 4 -12 8 -20 8 -8 0
-14 -4 -14 -8z"/>
<path d="M6635 5140 c3 -5 8 -10 11 -10 2 0 4 5 4 10 0 6 -5 10 -11 10 -5 0
-7 -4 -4 -10z"/>
<path d="M6796 5133 c-6 -14 -5 -15 5 -6 7 7 10 15 7 18 -3 3 -9 -2 -12 -12z"/>
<path d="M6826 5142 c-3 -5 1 -9 9 -9 8 0 15 4 15 9 0 4 -4 8 -9 8 -6 0 -12
-4 -15 -8z"/>
<path d="M7035 5140 c-3 -5 -1 -10 4 -10 6 0 11 5 11 10 0 6 -2 10 -4 10 -3 0
-8 -4 -11 -10z"/>
<path d="M1195 4930 c-3 -5 0 -10 7 -10 9 0 9 -3 -2 -10 -11 -7 -11 -10 -2
-10 7 0 11 -4 7 -9 -9 -15 12 -22 23 -8 7 8 5 19 -8 35 -11 13 -21 18 -25 12z
m30 -29 c3 -5 2 -12 -3 -15 -5 -3 -9 1 -9 9 0 17 3 19 12 6z"/>
<path d="M1173 4891 c0 -11 5 -18 9 -15 4 3 5 11 1 19 -7 21 -12 19 -10 -4z"/>
<path d="M1184 4830 c0 -13 4 -16 10 -10 7 7 7 13 0 20 -6 6 -10 3 -10 -10z"/>
<path d="M1175 4791 c-3 -5 -2 -12 3 -15 5 -3 9 1 9 9 0 17 -3 19 -12 6z"/>
<path d="M1470 4425 c0 -8 4 -15 10 -15 5 0 7 7 4 15 -4 8 -8 15 -10 15 -2 0
-4 -7 -4 -15z"/>
<path d="M1563 4398 c-12 -15 -13 -49 -2 -42 5 2 5 12 2 21 -4 10 -2 14 4 10
5 -3 10 0 10 8 0 18 -2 18 -14 3z"/>
<path d="M2370 4365 c0 -5 5 -17 10 -25 5 -8 10 -10 10 -5 0 6 -5 17 -10 25
-5 8 -10 11 -10 5z"/>
<path d="M1680 4340 c-6 -11 -8 -20 -6 -20 3 0 10 9 16 20 6 11 8 20 6 20 -3
0 -10 -9 -16 -20z"/>
<path d="M1740 4325 c-7 -8 -9 -15 -6 -15 4 0 14 7 22 15 9 8 11 15 6 15 -5 0
-15 -7 -22 -15z"/>
<path d="M1756 4303 c-6 -14 -5 -15 5 -6 7 7 10 15 7 18 -3 3 -9 -2 -12 -12z"/>
<path d="M1857 4314 c-3 -3 -3 -13 0 -22 5 -11 3 -13 -7 -7 -9 5 -11 4 -6 -4
10 -16 25 -4 23 19 -1 22 -1 22 -10 14z"/>
<path d="M1950 4301 c0 -7 -5 -9 -12 -5 -7 5 -8 3 -3 -5 5 -9 10 -10 18 -2 6
6 8 14 4 18 -4 3 -7 1 -7 -6z"/>
<path d="M1973 4287 c-2 -18 -1 -18 11 -2 12 17 42 13 31 -5 -3 -4 5 -5 17 -2
19 5 20 7 5 10 -9 2 -15 7 -13 11 3 4 -7 7 -23 7 -20 0 -27 -5 -28 -19z"/>
<path d="M2057 4293 c3 -7 6 -13 8 -13 2 0 5 6 8 13 3 8 -1 14 -8 14 -7 0 -11
-6 -8 -14z"/>
<path d="M2089 4292 c-11 -14 -11 -15 0 -5 7 6 20 9 27 6 8 -3 14 -3 14 0 0
14 -30 14 -41 -1z"/>
<path d="M2146 4302 c-3 -5 1 -9 9 -9 8 0 12 4 9 9 -3 4 -7 8 -9 8 -2 0 -6 -4
-9 -8z"/>
</g>
</svg>
